{"title":"Predators.2010.R5.LiNE.XviD.Feel-Free","uid":5849343,"size":1548054159,"categoryP":"video","categoryS":"movies","magnet":"?xt=urn:btih:d2369d02c81f753be720481451b57a303a81ed6c&amp;dn=Predators.2010.R5.LiNE.XviD.Feel-Free&amp;tr=udp%3A%2F%2Ftracker.openbittorrent.com%3A80&amp;tr=udp%3A%2F%2Fopen.demonii.com%3A1337&amp;tr=udp%3A%2F%2Ftracker.coppersurfer.tk%3A6969&amp;tr=udp%3A%2F%2Fexodus.desync.com%3A6969","seeders":0,"leechers":0,"uploader":"neon","files":11,"time":1285323114,"description":"Genre:Action | Adventure | Sci-Fi | Thriller\nLanguage:English\nIMDb:http://www.imdb.com/title/tt1424381/\nSource:DVD9/IMAGINE\nSample:Yes\n\nGeneral\nComplete name :Predators.2010.R5.LiNE.XviD.Feel-Free\nFormat : AVI\nFormat/Info : Audio Video Interleave\nFile size : 996 MiB\nDuration : 1h 42mn\nOverall bit rate : 1 359 Kbps\nVideo #0\nMuxing mode : Packed bitstream\nCodec ID : XVID\nCodec ID/Hint : XviD\nDuration : 1h 42mn\nBit rate : 1 221 Kbps\nWidth : 688 pixels\nHeight : 288 pixels\nDisplay aspect ratio : 2.35:1\nFrame rate : 25.000 fps\nResolution : 24 bits\nColorimetry : 4:2:0\nScan type : Progressive\nBits/(Pixel*Frame) : 0.247\nStream size : 895 MiB (90%)\nWriting library : XviD 1.2.1 (UTC 2008-12-04)\nAudio #1\nID : 1\nFormat : MPEG Audio\nFormat version : Version 1\nFormat profile : Layer 3\nCodec ID : 55\nCodec ID/Hint : MP3\nDuration : 1h 42mn\nBit rate mode : Constant\nBit rate : 128 Kbps\nChannel(s) : 2 channels\nSampling rate : 44.1 KHz\nResolution : 16 bits\nStream size : 93.9 MiB (9%)\nAlignment : Split accross interleaves\nInterleave, duration : 40 ms (1.00 video frame)\nInterleave, preload duration : 500 ms\nPlot\nA group of elite warriors are hunted by members of a merciless alien race known as Predators","torrent":{"xt":"urn:btih:d2369d02c81f753be720481451b57a303a81ed6c","amp;dn":"Predators.2010.R5.LiNE.XviD.Feel-Free","amp;tr":["udp%3A%2F%2Ftracker.openbittorrent.com%3A80","udp%3A%2F%2Fopen.demonii.com%3A1337","udp%3A%2F%2Ftracker.coppersurfer.tk%3A6969","udp%3A%2F%2Fexodus.desync.com%3A6969"],"infoHash":"d2369d02c81f753be720481451b57a303a81ed6c","infoHashBuffer":{"type":"Buffer","data":[210,54,157,2,200,31,117,59,231,32,72,20,81,181,122,48,58,129,237,108]},"announce":[],"urlList":[]}}